<svg id="filled_outline" height="512" viewBox="0 0 512 512" width="512" xmlns="http://www.w3.org/2000/svg" data-name="filled outline"><path d="m488 72h-248v-32a16 16 0 0 1 16-16h216a16 16 0 0 1 16 16z" fill="#89a8f5"/><path d="m488 72v192a16 16 0 0 1 -16 16h-216a16 16 0 0 1 -16-16v-192z" fill="#5771e5"/><path d="m208 128h-184v-32a16 16 0 0 1 16-16h152a16 16 0 0 1 16 16z" fill="#89a8f5"/><path d="m456 376 16-32v-32h-16l-16 24h-8l-16-16h-8v24l21.333 32z" fill="#e4e9f2"/><path d="m440 376v16l-40 48h-40l-40-30v-58h14.71a16.01335 16.01335 0 0 1 13.8999 8.06l27.3901 47.94 48-32z" fill="#e4e9f2"/><circle cx="376" cy="424" fill="#a6bce3" r="16"/><circle cx="440" cy="376" fill="#a6bce3" r="16"/><g fill="#e4e9f2"><path d="m336 368v40l-24 32h-16l-16-16h-24l-16 16h-16l-16.3-21.73-7.7-10.27v-64h112a24 24 0 0 1 24 24z"/><path d="m88 392 40 48h24 16l48-56v-24h-32l-8 8-24 40-48-32h-16z"/><path d="m72 376-16-32v-32h16l16 24h8l16-16h8v24l-16 24v8z"/><path d="m312 440v56h-88v-56h16l16-16h24l16 16z"/></g><path d="m248 288v48l-8 8 24 24h24v-80z" fill="#a6bce3"/><path d="m264 320 32 16 16-8-10.11864-45.5339a33.7979 33.7979 0 0 0 -32.99307-26.4661 33.79791 33.79791 0 0 0 -30.22975 18.683 20.65711 20.65711 0 0 0 3.86946 23.845z" fill="#e4e9f2"/><circle cx="264" cy="304" fill="#4e96ed" r="16"/><path d="m296 440-16 32h-24l-16-32 16-16h24z" fill="#cad8ed"/><path d="m208 128v144a16 16 0 0 1 -16 16h-152a16 16 0 0 1 -16-16v-144z" fill="#5771e5"/><circle cx="152" cy="424" fill="#a6bce3" r="16"/><circle cx="88" cy="376" fill="#a6bce3" r="16"/><circle cx="200" cy="360" fill="#a6bce3" r="16"/><circle cx="264" cy="48" fill="#f28868" r="8"/><circle cx="288" cy="48" fill="#f7c04a" r="8"/><circle cx="312" cy="48" fill="#90d4b1" r="8"/><path d="m240 307.31378v25.37222l-3.314 3.314h-36.686a24.03682 24.03682 0 0 0 -23.73169 20.41766l-5.92554 5.9256a8.04332 8.04332 0 0 0 -1.20312 1.54053l-19.68265 32.80566-37.8999-25.26605c-.01709-.088-.03-.17737-.0481-.26507l15.14722-22.72083a7.99983 7.99983 0 0 0 1.34378-4.4375v-24a8.00008 8.00008 0 0 0 -8-8h-8a8.00076 8.00076 0 0 0 -5.65723 2.34326l-13.65625 13.65674h-.40527l-13.625-20.4375a7.99943 7.99943 0 0 0 -6.65625-3.5625h-16a8.00008 8.00008 0 0 0 -8 8v32a7.99583 7.99583 0 0 0 .84473 3.57764l15.25127 30.50236a24.04073 24.04073 0 0 0 19.86889 21.574l37.88965 45.46759a7.99975 7.99975 0 0 0 6.14546 2.87841h40a8.00258 8.00258 0 0 0 6.07422-2.79346l23.37622-27.27227 18.54956 24.73273v53.333h16v-48h3.05591l13.78882 27.57764a7.99979 7.99979 0 0 0 7.15527 4.42236h24a7.99979 7.99979 0 0 0 7.15527-4.42236l13.78882-27.57764h3.05591v48h16v-53.333l10.88037-14.507 24.31983 18.2399a7.9984 7.9984 0 0 0 4.7998 1.6001h40a7.99975 7.99975 0 0 0 6.14551-2.87842l37.88965-45.46758a24.04073 24.04073 0 0 0 19.86889-21.574l15.25122-30.50232a7.99583 7.99583 0 0 0 .84473-3.57768v-32a8.00008 8.00008 0 0 0 -8-8h-16a7.99943 7.99943 0 0 0 -6.65625 3.5625l-13.625 20.4375h-.40527l-13.65625-13.65674a8.00076 8.00076 0 0 0 -5.65723-2.34326h-8a8.00008 8.00008 0 0 0 -8 8v24a7.99983 7.99983 0 0 0 1.34375 4.4375l15.14725 22.72083c-.01807.0877-.031.17706-.0481.26507l-37.74951 25.166-23.14063-40.4961a24.05259 24.05259 0 0 0 -20.83792-12.0933h-1.58276a31.86 31.86 0 0 0 -19.34814-7.94757l1.79418-.89716a8.00022 8.00022 0 0 0 4.23145-8.89062l-10.11816-45.53365a41.79831 41.79831 0 0 0 -78.18848-9.62549 28.61893 28.61893 0 0 0 5.36816 33.0791zm13.65723 34.343a8.00035 8.00035 0 0 0 2.34277-5.65678v-9.37616a23.81962 23.81962 0 0 0 5.91943 1.28021l18.08057 9.04029v23.05566h-12.68652l-16-16zm10.34277-29.65678a8 8 0 1 1 8-8 8.00917 8.00917 0 0 1 -8 8zm-64 40a8 8 0 1 1 -8 8 8.00917 8.00917 0 0 1 8-8zm-18.80322 22.88812a23.9606 23.9606 0 0 0 24.95434 8.30933l-30.68066 35.79413a24.0723 24.0723 0 0 0 -11.32715-15.6803zm-37.19678 49.11188a8 8 0 1 1 8 8 8.00917 8.00917 0 0 1 -8-8zm-80-104h3.71875l13.625 20.4375a7.99943 7.99943 0 0 0 6.65625 3.5625h8a8.00076 8.00076 0 0 0 5.65723-2.34326l10.34277-10.34274v10.26368l-9.97607 14.96423a23.9335 23.9335 0 0 0 -30.01734 1.58307l-8.00659-16.01365zm24 48a8 8 0 1 1 -8 8 8.00917 8.00917 0 0 1 8-8zm13.56665 27.78363a24.18613 24.18613 0 0 0 6.86719-7.21313l27.05493 18.03656a23.9217 23.9217 0 0 0 -7.16943 21.27978zm173.48901 68.21637h-14.11132l-11.21045-22.42023 9.57959-9.57977h17.373l9.57959 9.57977zm92.94434-40a8 8 0 1 1 8 8 8.00917 8.00917 0 0 1 -8-8zm31.68066 3.88684a23.9217 23.9217 0 0 0 -7.16943-21.27978l27.05493-18.03656a24.18613 24.18613 0 0 0 6.86719 7.21313zm40.31934-43.88684a8 8 0 1 1 8-8 8.00917 8.00917 0 0 1 -8 8zm-24-52.686 10.34277 10.34278a8.00076 8.00076 0 0 0 5.65723 2.34322h8a7.99943 7.99943 0 0 0 6.65625-3.5625l13.625-20.4375h3.71875v22.11133l-8.00659 16.01361a23.9335 23.9335 0 0 0 -30.01734-1.58307l-9.97607-14.96423zm-51.95557 71.88923a24.00877 24.00877 0 0 0 -12.04443 20.79671l-11.52-8.63977 1.92041-2.56037a8.00222 8.00222 0 0 0 1.59959-4.7998v-39.87408zm-36.04443-35.20323v37.3335l-20 26.6665h-8.68652l-13.65625-13.65674a8.00076 8.00076 0 0 0 -5.65723-2.34326h-24a8.00076 8.00076 0 0 0 -5.65723 2.34326l-13.65625 13.65674h-8.68652l-19.88257-26.5105 13.95679-16.283a8.0042 8.0042 0 0 0 1.92578-5.2065v-24a23.88212 23.88212 0 0 0 -1.37622-8h14.06222l21.65673 21.65674a8.00076 8.00076 0 0 0 5.65727 2.34326h24a8.00008 8.00008 0 0 0 8-8v-16h16a16.01833 16.01833 0 0 1 16 16zm-82.18652-89.73877a25.79832 25.79832 0 0 1 48.25879 5.94043l8.76367 39.43652-6.83594 3.41748-14.125-7.06243a23.98727 23.98727 0 1 0 -36.42529-31.20289 12.63525 12.63525 0 0 1 .36377-10.52911z"/><path d="m40 296h152a24.0275 24.0275 0 0 0 24-24v-176a24.0275 24.0275 0 0 0 -24-24h-152a24.0275 24.0275 0 0 0 -24 24v176a24.0275 24.0275 0 0 0 24 24zm152-16h-152a8.00917 8.00917 0 0 1 -8-8v-136h168v136a8.00917 8.00917 0 0 1 -8 8zm-152-192h152a8.00917 8.00917 0 0 1 8 8v24h-168v-24a8.00917 8.00917 0 0 1 8-8z"/><path d="m248 80h232v184a8.00917 8.00917 0 0 1 -8 8h-144v16h144a24.0275 24.0275 0 0 0 24-24v-224a24.0275 24.0275 0 0 0 -24-24h-216a24.0275 24.0275 0 0 0 -24 24v200h16zm8-48h216a8.00917 8.00917 0 0 1 8 8v24h-232v-24a8.00917 8.00917 0 0 1 8-8z"/><circle cx="48" cy="104" r="8"/><circle cx="72" cy="104" r="8"/><circle cx="96" cy="104" r="8"/><circle cx="264" cy="48" r="8"/><circle cx="288" cy="48" r="8"/><circle cx="312" cy="48" r="8"/><path d="m48 152h16v16h-16z"/><path d="m80 152h40v16h-40z"/><path d="m48 184h16v16h-16z"/><path d="m96 184h40v16h-40z"/><path d="m152 184h16v16h-16z"/><path d="m120 216h56v16h-56z"/><path d="m104 248h40v16h-40z"/><path d="m72 248h16v16h-16z"/><path d="m264 96h16v16h-16z"/><path d="m296 96h40v16h-40z"/><path d="m264 128h16v16h-16z"/><path d="m312 128h40v16h-40z"/><path d="m368 128h16v16h-16z"/><path d="m448 224h16v16h-16z"/><path d="m336 160h56v16h-56z"/><path d="m352 224h80v16h-80z"/><path d="m336 192h72v16h-72z"/><path d="m304 192h16v16h-16z"/></svg>